<svg id="logo" version="1.1" xmlns="http://www.w3.org/2000/svg" xmlns:xlink="http://www.w3.org/1999/xlink" x="0px" y="0px"
	 viewBox="0 0 1745.5 835.3" xml:space="preserve">
<g>
	<path d="M8,651.2c75-17,118.2-42,118.2-117V215.9c0-50-18.2-78.4-70.5-78.4c-12.5,0-21.6,1.1-51.1,9.1L0,133L330.7,0h11.4v534.1
		c0,73.9,46.6,103.4,118.2,117v8H8V651.2z"/>
	<path d="M500,712.5l20.5-12.5c25,47.7,71.6,77.3,134.1,77.3c93.2,0,155.7-72.7,155.7-208c0-104.5-47.7-171.6-123.9-171.6
		c-45.5,0-73.9,20.5-88.6,36.4l-29.5-18.2L661.4,17h429.6l-52.3,170.5H676.2L633,372.7c31.8-22.7,86.4-37.5,150-37.5
		c178.4,0,260.2,106.8,260.2,235.2c0,164.8-135.2,264.8-306.8,264.8C615.9,835.3,536.4,784.1,500,712.5z"/>
	<path d="M1401.2,576.2h-287.5v-40.9L1526.2,17h90.9v510.2h128.4v48.9h-128.4v242.1h-215.9V576.2z M1401.2,525V238.6L1173.9,525
		H1401.2z"/>
</g>
</svg>
